# xmcd
#
# Track frame offsets: 
#        150
#        17001
#        35402
#        58300
#        74437
#        93935
#        110148
#        131154
#        151214
#        167704
#
# Disc length: 2539 seconds
#
# Revision: 5
# Processed by: cddbd v1.5.2PL0 Copyright (c) Steve Scherf et al.
# Submitted via: ExactAudioCopy v1.1
#
DISCID=8909e90a
DTITLE=Shelby Lynne - Love, Shelby
DYEAR=2001
DGENRE=Rock
TTITLE0=Trust Me
TTITLE1=Bend
TTITLE2=Jesus On A Greyhound
TTITLE3=Wall In Your Heart
TTITLE4=Ain't It The Truth
TTITLE5=I Can't Wait
TTITLE6=Tarpoleon Napoleon
TTITLE7=Killin' Kind
TTITLE8=All Of A Sudden You Disappeared
TTITLE9=Mother
EXTD=lpe
EXTT0=
EXTT1=
EXTT2=
EXTT3=
EXTT4=
EXTT5=
EXTT6=
EXTT7=
EXTT8=
EXTT9=
PLAYORDER=
